<svg width="24" height="24" viewBox="0 0 24 24" fill="none" xmlns="http://www.w3.org/2000/svg">
<path d="M8 16C7.5861 16 7.1722 15.9239 6.76618 15.7808C4.2293 14.8867 2 11.3791 2 7.5C2 3 5 1 8 1C11 1 14 3 14 8C14 11.4464 11.7729 14.8929 9.23758 15.7808C8.83035 15.9234 8.41518 16 8 16ZM8 16C6.22993 18.6551 8.5 18.7803 8.5 21C8.5 21.8 8.16667 22.5 8 23" stroke="#7E90A5" stroke-width="2" stroke-linecap="round" stroke-linejoin="round"/>
<path d="M16.0001 19C15.5862 19 15.1723 18.9239 14.7663 18.7808C13.364 18.2866 12.0558 16.994 11.166 15.2814M16.0001 19C16.4153 19 16.8304 18.9234 17.2377 18.7808C19.773 17.8929 22.0001 14.4464 22.0001 11C22.0001 6 19.0001 4 16.0001 4C15.1442 4 14.2883 4.1628 13.502 4.5M16.0001 19C15.5 20 15 21 16 23" stroke="#7E90A5" stroke-width="2" stroke-linecap="round" stroke-linejoin="round"/>
</svg>
