<svg width="24" height="24" viewBox="0 0 24 24" fill="none" xmlns="http://www.w3.org/2000/svg">
<path fill-rule="evenodd" clip-rule="evenodd" d="M12 23C12 23 21 17 21 10C21 7.61305 20.0518 5.32387 18.364 3.63604C16.6761 1.94821 14.3869 1 12 1C9.61305 1 7.32387 1.94821 5.63604 3.63604C3.94821 5.32387 3 7.61305 3 10C3 17 12 23 12 23ZM12 15C14.7614 15 17 12.7614 17 10C17 7.23858 14.7614 5 12 5C9.23858 5 7 7.23858 7 10C7 12.7614 9.23858 15 12 15Z" fill="#D5E2E7"/>
<path d="M12 23L11.4453 23.8321C11.7812 24.056 12.2188 24.056 12.5547 23.8321L12 23ZM18.364 3.63604L17.6569 4.34315V4.34315L18.364 3.63604ZM5.63604 3.63604L6.34315 4.34315L5.63604 3.63604ZM20 10C20 13.0981 17.9843 16.1042 15.774 18.4373C14.6894 19.5822 13.6013 20.5195 12.7833 21.1708C12.3751 21.4959 12.0362 21.7482 11.8012 21.9178C11.6838 22.0026 11.5925 22.0667 11.5317 22.1088C11.5013 22.1299 11.4785 22.1454 11.464 22.1553C11.4567 22.1603 11.4514 22.1638 11.4483 22.1659C11.4467 22.167 11.4457 22.1677 11.4452 22.168C11.4449 22.1682 11.4448 22.1683 11.4448 22.1683C11.4448 22.1683 11.445 22.1682 11.445 22.1682C11.4451 22.1681 11.4453 22.1679 12 23C12.5547 23.8321 12.555 23.8319 12.5552 23.8317C12.5554 23.8316 12.5557 23.8314 12.556 23.8312C12.5566 23.8308 12.5573 23.8303 12.5581 23.8298C12.5598 23.8287 12.562 23.8272 12.5648 23.8253C12.5703 23.8216 12.5779 23.8164 12.5877 23.8098C12.6072 23.7966 12.6349 23.7776 12.6704 23.753C12.7415 23.7038 12.8435 23.6321 12.9722 23.5392C13.2295 23.3534 13.5936 23.0822 14.0292 22.7354C14.8987 22.043 16.0606 21.0428 17.226 19.8127C19.5157 17.3958 22 13.9019 22 10H20ZM17.6569 4.34315C19.1571 5.84344 20 7.87827 20 10H22C22 7.34784 20.9464 4.8043 19.0711 2.92893L17.6569 4.34315ZM12 2C14.1217 2 16.1566 2.84285 17.6569 4.34315L19.0711 2.92893C17.1957 1.05357 14.6522 0 12 0V2ZM6.34315 4.34315C7.84344 2.84285 9.87827 2 12 2V0C9.34784 0 6.8043 1.05357 4.92893 2.92893L6.34315 4.34315ZM4 10C4 7.87827 4.84285 5.84344 6.34315 4.34315L4.92893 2.92893C3.05357 4.8043 2 7.34784 2 10H4ZM12 23C12.5547 22.1679 12.5549 22.1681 12.555 22.1682C12.555 22.1682 12.5552 22.1683 12.5552 22.1683C12.5552 22.1683 12.5551 22.1682 12.5548 22.168C12.5543 22.1677 12.5533 22.167 12.5517 22.1659C12.5486 22.1638 12.5433 22.1603 12.536 22.1553C12.5215 22.1454 12.4987 22.1299 12.4683 22.1088C12.4075 22.0667 12.3162 22.0026 12.1988 21.9178C11.9638 21.7482 11.6249 21.4959 11.2167 21.1708C10.3987 20.5195 9.31061 19.5822 8.22595 18.4373C6.01574 16.1042 4 13.0981 4 10H2C2 13.9019 4.48426 17.3958 6.77405 19.8127C7.93939 21.0428 9.10133 22.043 9.97082 22.7354C10.4064 23.0822 10.7705 23.3534 11.0278 23.5392C11.1565 23.6321 11.2585 23.7038 11.3296 23.753C11.3651 23.7776 11.3928 23.7966 11.4123 23.8098C11.4221 23.8164 11.4297 23.8216 11.4352 23.8253C11.438 23.8272 11.4402 23.8287 11.4419 23.8298C11.4427 23.8303 11.4434 23.8308 11.444 23.8312C11.4443 23.8314 11.4446 23.8316 11.4448 23.8317C11.445 23.8319 11.4453 23.8321 12 23ZM16 10C16 12.2091 14.2091 14 12 14V16C15.3137 16 18 13.3137 18 10H16ZM12 6C14.2091 6 16 7.79086 16 10H18C18 6.68629 15.3137 4 12 4V6ZM8 10C8 7.79086 9.79086 6 12 6V4C8.68629 4 6 6.68629 6 10H8ZM12 14C9.79086 14 8 12.2091 8 10H6C6 13.3137 8.68629 16 12 16V14Z" fill="#D5E2E7"/>
</svg>
